<svg xmlns="http://www.w3.org/2000/svg" width="50" height="51" fill="none" viewBox="0 0 50 51"><circle cx="25" cy="25.002" r="25" fill="#F7F8F9"/><path fill="#627183" d="M35.6323 20.5905C35.6382 22.4546 35.0517 23.8271 33.9323 24.96C30.7424 28.1906 27.5505 31.4172 24.3408 34.6279C22.7083 36.2622 20.4416 36.3321 18.9497 34.8397C17.4301 33.3193 17.5054 31.0077 19.1617 29.3254C21.6027 26.846 24.0635 24.3866 26.5104 21.9131C26.9284 21.4896 27.4 21.052 27.931 21.6074C28.4639 22.1629 28.0003 22.6264 27.5882 23.042C25.1334 25.5094 22.6785 27.9748 20.2356 30.4522C19.2866 31.4132 19.1419 32.4582 19.7779 33.4172C20.5605 34.5999 22.0762 34.6958 23.1957 33.581C25.4741 31.3134 27.7249 29.0197 29.9895 26.7381C30.9227 25.7971 31.8797 24.878 32.7891 23.915C34.5207 22.083 34.5188 19.5056 32.8148 17.8474C31.1248 16.2011 28.664 16.265 26.8809 18.0472C23.6236 21.3018 20.3901 24.5824 17.1468 27.851C16.9367 28.0627 16.7327 28.2845 16.4949 28.4603C16.2017 28.6781 15.8728 28.6821 15.5835 28.4383C15.2606 28.1646 15.213 27.809 15.4191 27.4554C15.5498 27.2316 15.744 27.0378 15.9302 26.852C19.2469 23.5115 22.5359 20.147 25.8902 16.8484C29.1673 13.6257 34.4038 15.1262 35.4837 19.5576C35.5827 19.9731 35.6065 20.4087 35.6323 20.5905Z"/></svg>