<svg width="24" height="24" viewBox="0 0 24 24" fill="none" xmlns="http://www.w3.org/2000/svg">
<circle cx="12" cy="12" r="12" fill="white"/>
<path d="M11.9874 19.6196C7.76468 19.5065 4.38705 16.0463 4.52042 11.9685C4.65958 7.72544 8.10824 4.3797 12.1918 4.52611C16.4117 4.67832 19.7183 8.0632 19.6241 12.1366C19.5269 16.3522 16.0826 19.7269 11.9874 19.6196Z" fill="#627183"/>
<path d="M12.0485 5.64654C15.5624 5.63204 18.4689 8.50665 18.4979 12.0278C18.5283 15.5475 15.5841 18.5062 12.0587 18.4975C8.55637 18.4888 5.65132 15.5794 5.64552 12.0742C5.63972 8.56463 8.53172 5.66104 12.0485 5.64654Z" fill="white"/>
<path d="M12.0111 16.2198C10.6861 16.1821 9.56124 15.666 8.65957 14.66C8.38849 14.3585 8.24498 14.0323 8.61898 13.7235C8.9553 13.4452 9.22493 13.6337 9.49456 13.8946C11.1631 15.5138 12.9809 15.5153 14.6494 13.8961C14.9451 13.609 15.2351 13.4336 15.5772 13.7714C15.8932 14.0831 15.7308 14.386 15.4859 14.6586C14.5653 15.6834 13.4158 16.2039 12.0111 16.2198Z" fill="#627183"/>
<path d="M9.81976 11.1221C9.30369 11.1307 8.82096 10.6741 8.86735 10.1653C8.91664 9.62604 9.22541 9.26073 9.79076 9.25783C10.3431 9.25493 10.6852 9.56515 10.7243 10.1349C10.762 10.6828 10.3576 11.1134 9.81976 11.1221Z" fill="#627183"/>
<path d="M15.2838 10.1956C15.2258 10.6827 14.9765 11.0552 14.4097 11.1161C13.8748 11.1741 13.4268 10.7653 13.4181 10.2203C13.4094 9.64911 13.7182 9.32439 14.2676 9.25336C14.7735 9.18813 15.2606 9.63896 15.2838 10.1956Z" fill="#627183"/>
</svg>
