<svg xmlns="http://www.w3.org/2000/svg" width="50" height="50" fill="none" viewBox="0 0 50 50"><circle cx="25" cy="25" r="25" fill="#F7F8F9"/><path fill="#627183" d="M24.9836 35.1601C19.3532 35.0094 14.8497 30.3957 15.0276 24.9586C15.2131 19.3012 19.8113 14.8403 25.2561 15.0355C30.8826 15.2384 35.2914 19.7516 35.1658 25.1828C35.0363 30.8035 30.4438 35.3032 24.9836 35.1601Z"/><path fill="#F6F7FA" d="M25.0647 16.5294C29.7499 16.51 33.6252 20.3429 33.6639 25.0377C33.7045 29.7306 29.7789 33.6755 25.0782 33.6639C20.4085 33.6523 16.5351 29.7731 16.5274 25.0996C16.5196 20.4202 20.3756 16.5487 25.0647 16.5294Z"/><path fill="#627183" d="M25.0142 30.628C23.2475 30.5778 21.7477 29.8897 20.5454 28.5483C20.184 28.1463 19.9927 27.7114 20.4913 27.2997C20.9397 26.9286 21.2993 27.1799 21.6588 27.5278C23.8834 29.6867 26.3072 29.6887 28.5319 27.5297C28.9262 27.147 29.3128 26.9131 29.7689 27.3635C30.1903 27.779 29.9738 28.183 29.6472 28.5464C28.4198 29.9129 26.8871 30.6068 25.0142 30.628Z"/><path fill="#627183" d="M22.0943 23.8294C21.4062 23.841 20.7626 23.2322 20.8244 22.5537C20.8902 21.8347 21.3018 21.3476 22.0557 21.3438C22.7921 21.3399 23.2482 21.7535 23.3004 22.5131C23.3507 23.2438 22.8114 23.8178 22.0943 23.8294Z"/><path fill="#627183" d="M29.3784 22.5948C29.3011 23.2442 28.9687 23.741 28.2129 23.8222C27.4997 23.8995 26.9025 23.3544 26.8909 22.6277C26.8793 21.8661 27.291 21.4332 28.0235 21.3385C28.6981 21.2515 29.3475 21.8526 29.3784 22.5948Z"/></svg>