<svg width="28" height="28" viewBox="0 0 28 28" fill="none" xmlns="http://www.w3.org/2000/svg">
<path d="M14.8 22.167V21.367H13.2V22.167H14.8ZM13.2 25.667C13.2 26.1088 13.5582 26.467 14 26.467C14.4418 26.467 14.8 26.1088 14.8 25.667H13.2ZM13.2 22.167V25.667H14.8V22.167H13.2Z" fill="#627183"/>
<path d="M6.60164 16.5669C7.33361 16.2047 7.7319 17.138 7.7319 17.138L7.74379 17.1606C7.75548 17.1824 7.77493 17.2178 7.80233 17.2649C7.85719 17.3592 7.94358 17.4996 8.06307 17.6708C8.30273 18.0141 8.6714 18.4754 9.18067 18.9365C10.1929 19.8529 11.7553 20.7669 13.9999 20.7669C16.2445 20.7669 17.8069 19.8529 18.8192 18.9365C19.3285 18.4754 19.6971 18.0141 19.9368 17.6708C20.0563 17.4996 20.1427 17.3592 20.1975 17.2649C20.2249 17.2178 20.2444 17.1824 20.2561 17.1606L20.2678 17.1383C20.468 16.7345 20.9581 16.5683 21.3621 16.7682C21.7663 16.9682 21.9319 17.4581 21.7319 17.8624L21.7311 17.864L21.7301 17.8659L21.7276 17.871L21.7202 17.8855C21.7142 17.8971 21.7062 17.9126 21.696 17.9315C21.6756 17.9695 21.6468 18.0218 21.6093 18.0864C21.5342 18.2154 21.4238 18.394 21.2761 18.6057C20.9813 19.028 20.5337 19.5875 19.9154 20.1473C18.6726 21.2725 16.735 22.4002 13.9999 22.4002C11.2649 22.4002 9.32725 21.2725 8.08444 20.1473C7.46616 19.5875 7.01852 19.028 6.72375 18.6057C6.57603 18.394 6.46568 18.2154 6.3906 18.0864C6.35303 18.0218 6.32421 17.9695 6.30387 17.9315C6.2937 17.9126 6.28564 17.8971 6.27967 17.8855L6.27227 17.871L6.26972 17.8659L6.26874 17.864C6.26874 17.864 6.26849 17.8634 6.268 17.8622C6.24927 17.817 5.88819 16.9199 6.60164 16.5669Z" fill="#627183"/>
<rect x="9.33301" y="3.5" width="9.33333" height="14" rx="4.66667" stroke="#627183" stroke-width="1.6"/>
</svg>
