<svg xmlns="http://www.w3.org/2000/svg" width="28" height="28" fill="none" viewBox="0 0 28 28"><path stroke="#627183" stroke-linecap="round" stroke-linejoin="round" stroke-width="1.6" d="M11.2632 8.50957C10.7133 9.37368 9.33301 10.6418 9.33301 11.6667C9.33301 12.8301 10.5728 15.1729 12.1828 16.7632C13.7929 18.3534 15.1551 19.25 16.333 19.25C17.135 19.25 17.538 17.3158 19.6801 17.3158C21.2866 17.3158 23.333 19.0658 23.9164 21C24.2697 22.1715 22.7881 23.2227 21.2225 23.9222C20.2249 24.3679 19.1233 24.5351 18.0339 24.4519C15.7062 24.2741 12.2975 23.44 8.16636 19.5263C3.61458 14.5833 3.38478 11.3451 3.49968 8.18283C3.61459 5.02054 6.41636 3.5 7.3632 3.5C8.25098 3.5 11.0538 5.92918 11.4 7.81461C11.4442 8.05536 11.3946 8.30306 11.2632 8.50957Z"/><path stroke="#627183" stroke-linecap="round" stroke-width="1.6" d="M16.3333 7.00553C16.3333 7.00553 18.395 6.72215 20.1733 8.50043C21.9516 10.2787 21.6682 12.3404 21.6682 12.3404"/><path stroke="#627183" stroke-linecap="round" stroke-width="1.6" d="M16.333 2.33887C16.333 2.33887 19.6422 2.14219 22.7497 5.24968C25.8572 8.35718 25.6555 11.6614 25.6555 11.6614"/></svg>